<?xml version="1.0" encoding="UTF-8" standalone="no"?>
<!DOCTYPE svg PUBLIC "-//W3C//DTD SVG 20010904//EN"
              "http://www.w3.org/TR/2001/REC-SVG-20010904/DTD/svg10.dtd">

<svg xmlns="http://www.w3.org/2000/svg"
     width="13.3333in" height="13.3333in"
     viewBox="0 0 4000 4000">
  <path id="smile logo"
        fill="#2d90be" stroke="#2d90be" stroke-width="1"
        d="M 3183.65,2221.75
           C 3138.32,2221.75 3099.92,2206.00 3068.45,2174.52
             3036.95,2143.02 3021.22,2104.60 3021.22,2059.24
             3021.22,1943.40 3076.62,1885.48 3187.43,1885.48
             3230.24,1885.48 3267.38,1901.20 3298.88,1932.70
             3330.36,1964.18 3346.11,2002.60 3346.11,2047.93
             3346.11,2103.35 3328.47,2146.16 3293.19,2176.39
             3257.94,2206.61 3221.43,2221.75 3183.65,2221.75 Z
           M 2230.70,3242.95
           C 2154.19,3258.54 2067.77,3266.35 1971.45,3266.35
             1815.61,3266.35 1666.12,3228.10 1523.02,3151.59
             1433.77,3103.42 1362.22,3053.11 1308.36,3000.71
             1272.94,2966.71 1236.84,2921.37 1200.00,2864.70
             1153.25,2796.69 1129.87,2744.98 1129.87,2709.56
             1129.87,2684.06 1141.20,2671.31 1163.90,2671.31
             1176.62,2671.31 1188.67,2681.23 1200.00,2701.09
             1263.75,2805.90 1360.80,2897.99 1491.15,2977.36
             1641.32,3068.00 1812.07,3113.34 2003.33,3113.34
             2163.40,3113.34 2312.16,3078.63 2449.61,3009.23
             2526.09,2970.96 2593.03,2925.95 2650.41,2874.26
             2707.79,2822.55 2754.21,2766.94 2789.63,2707.41
             2805.19,2680.52 2820.78,2667.06 2836.36,2667.06
             2860.45,2667.06 2872.49,2680.52 2872.49,2707.41
             2872.49,2731.52 2857.26,2769.07 2826.78,2820.07
             2796.32,2871.07 2761.98,2917.83 2723.73,2960.33
             2664.23,3026.92 2588.78,3086.07 2497.38,3137.76
             2406.00,3189.49 2317.12,3224.56 2230.70,3242.95 Z
           M 818.65,2207.58
           C 773.32,2207.58 734.92,2191.83 703.45,2160.35
             671.95,2128.85 656.22,2090.44 656.22,2045.08
             656.22,1929.23 711.62,1871.31 822.43,1871.31
             865.24,1871.31 902.38,1887.04 933.88,1918.54
             965.36,1950.01 981.11,1988.43 981.11,2033.77
             981.11,2089.19 963.47,2132.00 928.19,2162.22
             892.94,2192.44 856.43,2207.58 818.65,2207.58 Z" />
</svg>
