<?xml version="1.0" encoding="UTF-8" standalone="no"?>
<!DOCTYPE svg PUBLIC "-//W3C//DTD SVG 20010904//EN"
              "http://www.w3.org/TR/2001/REC-SVG-20010904/DTD/svg10.dtd">

<svg xmlns="http://www.w3.org/2000/svg"
     width="5.64667in" height="5.64667in"
     viewBox="0 0 1694 1694">
  <path id=")"
        fill="#2d90be" stroke="#2d90be" stroke-width="1"
        d="M 944.70,1373.39
           C 912.30,1379.99 875.70,1383.30 834.91,1383.30
             768.91,1383.30 705.60,1367.10 645.00,1334.70
             607.20,1314.30 576.90,1292.99 554.09,1270.80
             539.09,1256.40 523.80,1237.20 508.20,1213.20
             488.40,1184.40 478.50,1162.50 478.50,1147.50
             478.50,1136.70 483.30,1131.30 492.91,1131.30
             498.30,1131.30 503.40,1135.50 508.20,1143.91
             535.20,1188.30 576.30,1227.30 631.50,1260.91
             695.10,1299.30 767.41,1318.50 848.41,1318.50
             916.20,1318.50 979.20,1303.80 1037.41,1274.41
             1069.80,1258.20 1098.15,1239.14 1122.45,1217.25
             1146.75,1195.35 1166.41,1171.80 1181.41,1146.59
             1188.00,1135.20 1194.60,1129.50 1201.20,1129.50
             1211.40,1129.50 1216.50,1135.20 1216.50,1146.59
             1216.50,1156.80 1210.05,1172.70 1197.14,1194.30
             1184.24,1215.90 1169.70,1235.70 1153.50,1253.70
             1128.30,1281.90 1096.35,1306.95 1057.64,1328.84
             1018.94,1350.75 981.30,1365.60 944.70,1373.39 Z
           M 346.70,934.91
           C 327.50,934.91 311.24,928.24 297.91,914.91
             284.57,901.57 277.91,885.30 277.91,866.09
             277.91,817.03 301.37,792.50 348.30,792.50
             366.43,792.50 382.16,799.16 395.50,812.50
             408.83,825.83 415.50,842.10 415.50,861.30
             415.50,884.77 408.03,902.90 393.09,915.70
             378.16,928.50 362.70,934.91 346.70,934.91 Z
           M 1348.70,940.91
           C 1329.50,940.91 1313.24,934.24 1299.91,920.91
             1286.57,907.57 1279.91,891.30 1279.91,872.09
             1279.91,823.03 1303.37,798.50 1350.30,798.50
             1368.43,798.50 1384.16,805.16 1397.50,818.50
             1410.83,831.83 1417.50,848.10 1417.50,867.30
             1417.50,890.77 1410.03,908.90 1395.09,921.70
             1380.16,934.50 1364.70,940.91 1348.70,940.91 Z" />
</svg>
